<svg xmlns="http://www.w3.org/2000/svg" viewBox="0 0 24 24" fill="none">
  <path
    d="M12 3.2c1.2 2 2.9 3.2 5.2 3.6-1.5 1.3-2.4 3-2.4 5.1 0 .6.1 1.2.3 1.7-1.8-.7-3.7-.4-5.3.8-1.6-1.2-3.5-1.5-5.3-.8.2-.5.3-1.1.3-1.7 0-2.1-.9-3.8-2.4-5.1C9.1 6.4 10.8 5.2 12 3.2Z"
    fill="#F59E0B"
    opacity="0.9"
  />
  <path
    d="M12 2.7c1.3 2.2 3.2 3.6 6.1 4.1-1.8 1.5-2.9 3.5-2.9 5.9 0 1 .2 1.9.6 2.8-2.1-1-4.3-.7-6.1.7-1.8-1.4-4-1.7-6.1-.7.4-.9.6-1.8.6-2.8 0-2.4-1.1-4.4-2.9-5.9 2.9-.5 4.8-1.9 6.1-4.1Z"
    stroke="#92400E"
    stroke-width="1.2"
    stroke-linejoin="round"
  />
</svg>
