<svg xmlns="http://www.w3.org/2000/svg" viewBox="0 0 24 24" fill="none">
  <path
    d="M12 4.2c.9 1.6 2.2 2.7 4.1 3-1.2 1-1.9 2.4-1.9 4.1 0 1 .2 1.9.7 2.7-1.1-.4-2.3-.3-3.4.3-1.1-.6-2.3-.7-3.4-.3.5-.8.7-1.7.7-2.7 0-1.7-.7-3.1-1.9-4.1 1.9-.3 3.2-1.4 4.1-3Z"
    fill="#FDE68A"
  />
  <path
    d="M12 4.2c.9 1.6 2.2 2.7 4.1 3-1.2 1-1.9 2.4-1.9 4.1 0 1 .2 1.9.7 2.7-1.1-.4-2.3-.3-3.4.3-1.1-.6-2.3-.7-3.4-.3.5-.8.7-1.7.7-2.7 0-1.7-.7-3.1-1.9-4.1 1.9-.3 3.2-1.4 4.1-3Z"
    stroke="#92400E"
    stroke-width="1.2"
    stroke-linejoin="round"
    opacity="0.9"
  />
  <path d="M12 10.2v4.6" stroke="#92400E" stroke-width="1.2" stroke-linecap="round" opacity="0.7"/>
  <path d="M10.2 12.2h3.6" stroke="#92400E" stroke-width="1.2" stroke-linecap="round" opacity="0.7"/>
</svg>
