<?xml version="1.0" encoding="UTF-8"?>
<svg id="katman_2" data-name="katman 2" xmlns="http://www.w3.org/2000/svg" viewBox="0 0 779.32 207">
  <defs>
    <style>
      .cls-1 {
        fill: #3c86c7;
        stroke-width: 0px;
      }
    </style>
  </defs>
  <g id="Layer_1" data-name="Layer 1">
    <g>
      <path class="cls-1" d="M359.44,0c-67.8,0-118.2,51.6-118.2,116.1,0,54.9,44.1,90.9,101.4,90.9,67.8,0,118.2-51.9,118.2-116.7,0-54.3-44.1-90.3-101.4-90.3ZM345.64,161.4c-29.7,0-50.7-19.5-50.7-48.6,0-36.9,26.4-67.2,61.5-67.2,29.7,0,50.7,19.5,50.7,48.6,0,36.9-26.4,67.2-61.5,67.2Z"/>
      <path class="cls-1" d="M584.65,0l-59.1,78.52-17.94-48.49c-4.61-14.03,7.39-28.74,23.39-30.03h-88.26l49.5,124.12-11.27,51.36c-4.98,20.52-17.98,28.7-28.98,31.52h74.15l17.7-82.88,60.45-70.76-.3.64s.33-.52.97-1.44l20.48-23.97C643,7,642,5,665.33,0"/>
      <path class="cls-1" d="M679.95,0l-101.66,174.09c-10.29,16.91-24.29,27.75-42.18,32.91h82.94l17.1-33.48h82.8l3.9,33.48h53.4l-25.63-165.97C748,10,779.32,0,779.32,0M659.25,130.02l45.9-82.8,9.9,82.8h-55.8Z"/>
      <path class="cls-1" d="M195.45,0l-26.7,125.22L114.45,0h-53.1L28.52,154.15c-7.52,29.85-9.52,44.85-28.52,52.85h68.85l27.9-130.38,56.7,130.38h49.8l37.64-173.96C248,8,255,2,273.89,0"/>
    </g>
  </g>
</svg>