<?xml version="1.0" encoding="UTF-8"?>
<svg id="katman_2" data-name="katman 2" xmlns="http://www.w3.org/2000/svg" viewBox="0 0 300.98 113.24">
  <defs>
    <style>
      .cls-1 {
        fill: #000;
        stroke-width: 0px;
      }

      .cls-2 {
        fill: #fff;
        stroke: #000;
        stroke-miterlimit: 10;
      }
    </style>
  </defs>
  <g id="katman_1" data-name="katman 1">
    <g>
      <g>
        <path class="cls-1" d="M59,7.45c23.39,0,37.55,7.15,37.55,23.84,0,28.76-23.69,37.7-50.66,37.7h-3.28l-6.85,39.93h18.48l-.45,2.83H0l.6-2.83h7.9L24.88,10.28h-8.64l.6-2.83h42.17ZM43.21,66.16h3.58c16.24,0,20.26-24.29,20.26-37.85s-2.68-18.03-12.81-18.03h-2.09l-8.94,55.88Z"/>
        <path class="cls-1" d="M134.25,100.28c-6.85,9.69-11.92,12.96-21.75,12.96-13.71,0-20.56-5.96-20.56-18.77,0-5.51.6-10.28,4.92-31.74L108.77,2.68h-10.58l.45-2.68h38.14l-17.28,92.68c-.75,3.87-1.64,7.75-1.64,10.28,0,2.68.89,4.17,3.73,4.17,2.38,0,5.66-1.94,10.28-8.64l2.38,1.79Z"/>
        <path class="cls-1" d="M218.28,100.58c-5.36,8.79-11.77,12.67-19.97,12.67-14.75,0-20.26-7.45-17.88-19.52l-.75-.15c-4.02,11.62-11.62,19.67-24.59,19.67-17.28,0-23.99-9.98-23.99-25.93,0-27.42,12.52-47.98,36.65-47.98,11.03,0,14.45,4.17,16.69,9.83l2.09-7.9c7.15.15,21.46,0,27.27-1.19-3.73,18.33-7.6,35.61-10.88,57.22-.3,1.94-.6,4.02-.6,5.36,0,3.88,1.79,4.77,3.87,4.77,2.23,0,5.51-1.49,9.83-8.2l2.24,1.34ZM177.46,90.44c3.28-10.43,5.21-22.8,5.21-34.72,0-8.94-4.17-12.37-8.34-12.37-4.47,0-7.6,4.17-10.58,14.6-3.28,11.47-5.96,27.86-5.96,38.59,0,5.07.6,10.88,6.41,10.88,4.62,0,9.69-5.21,13.26-16.99Z"/>
        <path class="cls-1" d="M259.41,96.26c0-9.39,6.85-29.95,8.49-35.76,2.24-8.19,3.73-13.71-1.19-13.71-5.22,0-9.24,5.81-13.41,14.45-7.15,14.75-8.64,32.18-10.43,49.92-4.62-.15-25.48.6-29.65,1.49l6.41-27.86,5.96-41.27h-10.58l.3-2.68h38l-5.66,24.44.45.15c5.36-13.71,12.81-26.08,30.84-26.08,11.03,0,16.54,6.26,16.54,16.09,0,3.43-.6,7.15-1.49,10.73l-7.15,28.61c-1.04,4.17-1.64,7-1.64,8.79,0,2.83,1.49,3.58,3.43,3.58,2.68,0,5.51-1.64,9.98-8.64l2.38,1.49c-4.92,8.05-10.43,13.26-21.9,13.26s-19.67-4.77-19.67-16.99Z"/>
      </g>
      <g>
        <path class="cls-2" d="M183.32,5.81c-8.58,0-14.95,6.53-14.95,14.69,0,6.95,5.58,11.5,12.83,11.5,8.58,0,14.95-6.57,14.95-14.77,0-6.87-5.58-11.42-12.83-11.42h0ZM181.57,26.23c-3.76,0-6.41-2.47-6.41-6.15,0-4.67,3.34-8.5,7.78-8.5,3.76,0,6.41,2.47,6.41,6.15,0,4.67-3.34,8.5-7.78,8.5Z"/>
        <path class="cls-2" d="M211.81,5.81l-7.48,9.93-2.27-6.14c-.58-1.78.93-3.64,2.96-3.8h-11.17l6.26,15.7-1.43,6.5c-.63,2.6-2.27,3.63-3.67,3.99h9.38l2.24-10.49,7.65-8.95-.04.08s.04-.07.12-.18l2.59-3.03c2.22-2.73,2.1-2.98,5.05-3.62h-10.21Z"/>
        <path class="cls-2" d="M223.87,5.81l-12.86,22.03c-1.3,2.14-3.07,3.51-5.34,4.16h10.49l2.16-4.24h10.48l.49,4.24h6.76l-3.24-21c-.33-3.93,3.63-5.19,3.63-5.19h-12.57ZM221.25,22.26l5.81-10.48,1.25,10.48h-7.06Z"/>
        <path class="cls-2" d="M162.57,5.81l-3.38,15.84-6.87-15.84h-6.72l-4.15,19.5c-.95,3.78-1.2,5.67-3.61,6.69h8.71l3.53-16.5,7.17,16.5h6.3l4.76-22.01c.9-3.17,1.79-3.93,4.18-4.18h-9.92Z"/>
      </g>
    </g>
  </g>
</svg>